<?xml version="1.0" encoding="iso-8859-1"?>
<!-- Generator: Adobe Illustrator 19.0.0, SVG Export Plug-In . SVG Version: 6.00 Build 0)  -->
<svg version="1.1" id="Capa_1" xmlns="http://www.w3.org/2000/svg" xmlns:xlink="http://www.w3.org/1999/xlink" x="0px" y="0px"
	 viewBox="0 0 512 512" style="enable-background:new 0 0 512 512;" xml:space="preserve">
<rect x="204.8" y="412.144" style="fill:#ABBACD;" width="102.4" height="62.295"/>
<rect x="204.8" y="412.155" style="fill:#91A4B6;" width="102.4" height="28.209"/>
<path style="fill:#BAC7D9;" d="M494.933,76.363c9.426,0,17.067,7.641,17.067,17.067v307.199c0,9.426-7.641,17.067-17.067,17.067
	H17.067C7.641,417.696,0,410.055,0,400.629V93.43c0-9.425,7.641-17.067,17.067-17.067H494.933z"/>
<path style="fill:#A5B5CC;" d="M494.933,76.363H472.27c9.426,0,17.067,7.641,17.067,17.067v307.199
	c0,9.426-7.641,17.067-17.067,17.067h22.663c9.426,0,17.067-7.641,17.067-17.067V93.43C512,84.005,504.359,76.363,494.933,76.363z"
	/>
<circle style="fill:#D7DCF2;" cx="256" cy="383.557" r="12.801"/>
<path style="fill:#474855;" d="M512,349.429V93.43c0-9.426-7.641-17.067-17.067-17.067H17.067C7.641,76.363,0,84.005,0,93.43
	v255.998h512V349.429z"/>
<path style="fill:#3C3C47;" d="M494.933,76.363h-22.664c9.426,0,17.067,7.641,17.067,17.067v255.998H512V93.43
	C512,84.005,504.359,76.363,494.933,76.363z"/>
<path style="fill:#FFFFFF;" d="M25.6,108.144v209.503c0,3.414,2.767,6.181,6.181,6.181H480.22c3.414,0,6.181-2.767,6.181-6.181
	V108.144c0-3.414-2.767-6.181-6.181-6.181H31.781C28.367,101.963,25.6,104.731,25.6,108.144z"/>
<path style="fill:#92D782;" d="M486.398,144.629H25.6v-36.485c0-3.414,2.767-6.181,6.181-6.181h448.438
	c3.414,0,6.181,2.768,6.181,6.181L486.398,144.629z"/>
<path style="fill:#FFFFFF;" d="M68.266,131.022H51.201c-4.267,0-7.726-3.459-7.726-7.726s3.459-7.726,7.726-7.726h17.065
	c4.267,0,7.726,3.459,7.726,7.726S72.533,131.022,68.266,131.022z"/>
<path style="fill:#BAC7D9;" d="M369.286,503.03H142.715c-3.414,0-6.181-2.767-6.181-6.181v-21.771c0-3.414,2.767-6.181,6.181-6.181
	h226.571c3.414,0,6.181,2.767,6.181,6.181v21.771C375.467,500.263,372.7,503.03,369.286,503.03z"/>
<path style="fill:#A5B5CC;" d="M369.286,468.897h-22.664c3.414,0,6.181,2.767,6.181,6.181v21.771c0,3.414-2.767,6.181-6.181,6.181
	h22.664c3.414,0,6.181-2.767,6.181-6.181v-21.771C375.467,471.664,372.7,468.897,369.286,468.897z"/>
<path style="fill:#ABECFD;" d="M418.423,208.708c-4.268,0-7.726-3.458-7.726-7.726v-99.018c0-4.268,3.458-7.726,7.726-7.726
	s7.726,3.458,7.726,7.726v99.018C426.15,205.249,422.692,208.708,418.423,208.708z"/>
<path style="fill:#FFAA6E;" d="M418.426,263.289c-4.268,0-7.726-3.458-7.726-7.726v-25.6c0-4.268,3.458-7.726,7.726-7.726
	s7.726,3.458,7.726,7.726v25.6C426.152,259.831,422.694,263.289,418.426,263.289z"/>
<circle style="fill:#FFDF8C;" cx="418.429" cy="212.897" r="17.067"/>
<path style="fill:#3C3C47;" d="M358.4,135.427v128.67c0,9.426-7.641,17.067-17.067,17.067H170.667
	c-9.426,0-17.067-7.641-17.067-17.067v-128.67L358.4,135.427L358.4,135.427z"/>
<path style="fill:#474855;" d="M416.817,107.38l-157.839,86.812c-1.855,1.02-4.103,1.02-5.958,0L95.179,107.38
	c-4.27-2.349-4.27-8.484,0-10.832L253.021,9.735c1.854-1.02,4.103-1.02,5.958,0l157.839,86.813
	C421.088,98.896,421.088,105.031,416.817,107.38z"/>
<path style="fill:#3C3C47;" d="M416.817,96.547L258.978,9.735c-1.855-1.02-4.103-1.02-5.958,0l-8.354,4.595l149.486,82.219
	c4.27,2.349,4.27,8.484,0,10.832l-149.486,82.218l8.354,4.595c1.854,1.02,4.103,1.02,5.958,0l157.839-86.812
	C421.088,105.031,421.088,98.896,416.817,96.547z"/>
<path style="fill:#2B2B33;" d="M358.4,139.509l-99.422,54.683c-1.855,1.02-4.103,1.02-5.958,0L153.6,139.511v22.664l99.42,54.681
	c1.854,1.02,4.103,1.02,5.958,0l99.422-54.683v-22.664H358.4z"/>
<g>
</g>
<g>
</g>
<g>
</g>
<g>
</g>
<g>
</g>
<g>
</g>
<g>
</g>
<g>
</g>
<g>
</g>
<g>
</g>
<g>
</g>
<g>
</g>
<g>
</g>
<g>
</g>
<g>
</g>
</svg>
