<?xml version="1.0" encoding="iso-8859-1"?>
<!-- Generator: Adobe Illustrator 19.0.0, SVG Export Plug-In . SVG Version: 6.00 Build 0)  -->
<svg version="1.1" id="Capa_1" xmlns="http://www.w3.org/2000/svg" xmlns:xlink="http://www.w3.org/1999/xlink" x="0px" y="0px"
	 viewBox="0 0 512 512" style="enable-background:new 0 0 512 512;" xml:space="preserve">
<g>
	<path style="fill:#E7ECED;" d="M481.103,512H30.897C13.833,512,0,498.167,0,481.103V88.276h512v392.828
		C512,498.167,498.167,512,481.103,512z"/>
	<path style="fill:#212F3F;" d="M512,105.931H0V30.897C0,13.833,13.833,0,30.897,0h450.207C498.167,0,512,13.833,512,30.897V105.931
		z"/>
	<rect x="35.31" y="35.31" style="fill:#DD352E;" width="35.31" height="35.31"/>
	<rect x="105.931" y="35.31" style="fill:#EBBA16;" width="35.31" height="35.31"/>
	<rect x="176.552" y="35.31" style="fill:#25AE88;" width="35.31" height="35.31"/>
</g>
<rect x="35.31" y="141.241" style="fill:#EBBA16;" width="441.379" height="335.448"/>
<g>
	<path style="fill:#BC911B;" d="M70.621,220.69c-4.873,0-8.828-3.955-8.828-8.828v-35.31c0-4.873,3.955-8.828,8.828-8.828h35.31
		c4.873,0,8.828,3.955,8.828,8.828c0,4.873-3.955,8.828-8.828,8.828H79.448v26.483C79.448,216.735,75.494,220.69,70.621,220.69z"/>
	<path style="fill:#BC911B;" d="M441.379,450.207h-35.31c-4.873,0-8.828-3.955-8.828-8.828s3.955-8.828,8.828-8.828h26.483v-26.483
		c0-4.873,3.955-8.828,8.828-8.828s8.828,3.955,8.828,8.828v35.31C450.207,446.252,446.252,450.207,441.379,450.207z"/>
</g>
<polygon style="fill:#1F436D;" points="256,344.276 150.069,294.426 150.069,370.759 256,423.724 361.931,370.759 361.931,294.426 
	"/>
<g>
	<path style="fill:#E7ECED;" d="M406.069,361.931c-4.873,0-8.828-3.955-8.828-8.828v-79.448c0-4.873,3.955-8.828,8.828-8.828
		s8.828,3.955,8.828,8.828v79.448C414.897,357.976,410.942,361.931,406.069,361.931z"/>
	<path style="fill:#E7ECED;" d="M388.405,388.414c-1.686,0-3.381-0.477-4.891-1.483c-4.052-2.701-5.155-8.183-2.445-12.244
		l17.655-26.483c2.701-4.043,8.183-5.155,12.244-2.445c4.052,2.701,5.155,8.183,2.445,12.244l-17.655,26.483
		C394.055,387.037,391.256,388.414,388.405,388.414z"/>
	<path style="fill:#E7ECED;" d="M423.733,388.414c-2.851,0-5.65-1.377-7.353-3.928l-17.655-26.483
		c-2.701-4.052-1.607-9.543,2.445-12.244c4.052-2.719,9.543-1.607,12.244,2.445l17.655,26.483c2.701,4.052,1.607,9.543-2.445,12.244
		C427.114,387.937,425.41,388.414,423.733,388.414z"/>
</g>
<path style="fill:#15324F;" d="M256,379.586c-4.873,0-8.828-3.955-8.828-8.828v-44.138c0-4.873,3.955-8.828,8.828-8.828
	s8.828,3.955,8.828,8.828v44.138C264.828,375.631,260.873,379.586,256,379.586z"/>
<polygon style="fill:#366DB6;" points="256,203.034 105.931,273.655 256,344.276 406.069,273.655 "/>
<g>
	<path style="fill:#E7ECED;" d="M406.069,282.483H256c-4.873,0-8.828-3.955-8.828-8.828c0-4.873,3.955-8.828,8.828-8.828h150.069
		c4.873,0,8.828,3.955,8.828,8.828C414.897,278.528,410.942,282.483,406.069,282.483z"/>
	<path style="fill:#E7ECED;" d="M256,300.138c-4.873,0-8.828-3.955-8.828-8.828V256c0-4.873,3.955-8.828,8.828-8.828
		s8.828,3.955,8.828,8.828v35.31C264.828,296.183,260.873,300.138,256,300.138z"/>
</g>
<g>
</g>
<g>
</g>
<g>
</g>
<g>
</g>
<g>
</g>
<g>
</g>
<g>
</g>
<g>
</g>
<g>
</g>
<g>
</g>
<g>
</g>
<g>
</g>
<g>
</g>
<g>
</g>
<g>
</g>
</svg>
